<svg width="51" height="218" viewBox="0 0 51 218" fill="none" xmlns="http://www.w3.org/2000/svg">
<path d="M48.7121 2.87879L44.6726 151.405H6.76427L2.62127 2.87879H48.7121ZM25.7185 217.693C18.8825 217.693 13.0133 215.276 8.11074 210.443C3.2082 205.54 0.791452 199.671 0.860502 192.835C0.791452 186.068 3.2082 180.268 8.11074 175.434C13.0133 170.601 18.8825 168.184 25.7185 168.184C32.2782 168.184 38.0439 170.601 43.0155 175.434C47.987 180.268 50.5074 186.068 50.5764 192.835C50.5074 197.392 49.299 201.57 46.9513 205.368C44.6726 209.096 41.669 212.1 37.9403 214.379C34.2116 216.588 30.1376 217.693 25.7185 217.693Z" fill="black"/>
</svg>
