<svg width="20" height="24" viewBox="0 0 20 24" fill="none" xmlns="http://www.w3.org/2000/svg">
<path d="M10 3.27905C4.48578 3.27905 0 7.76483 0 13.2791C0 18.7933 4.48578 23.2791 10 23.2791C15.5142 23.2791 20 18.7933 20 13.2791C20 7.76483 15.5142 3.27905 10 3.27905Z" fill="#FECC4C"/>
<path d="M10.7802 14.9102C10.7755 14.9674 10.7613 15.0189 10.7377 15.0646C10.7141 15.1104 10.6715 15.1504 10.61 15.1847C10.5533 15.2133 10.4729 15.2362 10.3689 15.2533C10.2696 15.2705 10.1467 15.2791 10.0001 15.2791C9.84881 15.2791 9.72351 15.2705 9.62422 15.2533C9.52493 15.2362 9.44455 15.2133 9.38309 15.1847C9.32635 15.1504 9.28616 15.1104 9.26252 15.0646C9.23888 15.0189 9.22469 14.9674 9.21997 14.9102L8.4292 7.78227C8.4292 7.70793 8.44338 7.64217 8.47175 7.58499C8.50012 7.5278 8.54977 7.48205 8.62069 7.44774C8.69634 7.40772 8.79563 7.37912 8.91856 7.36197C9.04622 7.34481 9.81098 7.27905 10.0001 7.27905C10.1892 7.27905 11.1573 7.33052 11.2803 7.35339C11.4032 7.37055 11.5001 7.39914 11.571 7.43917C11.6467 7.47348 11.6987 7.51922 11.7271 7.57641C11.7602 7.62787 11.7767 7.69078 11.7767 7.76511L10.7802 14.9102ZM11.0001 18.0267C11.0001 18.2612 10.9836 18.4585 10.9505 18.6186C10.9221 18.7787 10.8677 18.9074 10.7873 19.0046C10.7117 19.1018 10.61 19.1704 10.4824 19.2104C10.3547 19.2562 10.194 19.2791 10.0001 19.2791C9.80625 19.2791 9.64313 19.2562 9.51075 19.2104C9.38309 19.1704 9.28143 19.1018 9.20578 19.0046C9.13013 18.9074 9.07576 18.7787 9.04266 18.6186C9.01429 18.4585 9.00011 18.2612 9.00011 18.0267C9.00011 17.7866 9.01429 17.5864 9.04266 17.4263C9.07576 17.2605 9.13013 17.1289 9.20578 17.0317C9.28143 16.9288 9.38309 16.8573 9.51075 16.8173C9.64313 16.7715 9.80625 16.7487 10.0001 16.7487C10.194 16.7487 10.3547 16.7715 10.4824 16.8173C10.61 16.8573 10.7117 16.9288 10.7873 17.0317C10.8677 17.1289 10.9221 17.2605 10.9505 17.4263C10.9836 17.5864 11.0001 17.7866 11.0001 18.0267Z" fill="black"/>
</svg>
