<svg width="24" height="24" viewBox="0 0 24 24" fill="none" xmlns="http://www.w3.org/2000/svg">
<mask id="mask0_1144_11199" style="mask-type:alpha" maskUnits="userSpaceOnUse" x="4" y="1" width="16" height="21">
<path fill-rule="evenodd" clip-rule="evenodd" d="M14.8936 2.79106C14.3601 2.25746 13.6407 1.95036 12.8861 1.94859C12.6308 1.948 12.3619 1.948 12.0782 1.948C9.35079 1.948 7.9871 1.948 6.94538 2.47878C6.02905 2.94567 5.28405 3.69067 4.81716 4.607C4.28638 5.64872 4.28638 7.01241 4.28638 9.73979V13.6357C4.28638 16.3631 4.28638 17.7268 4.81716 18.7685C5.28405 19.6849 6.02905 20.4298 6.94538 20.8967C7.9871 21.4275 9.35079 21.4275 12.0782 21.4275C14.8056 21.4275 16.1693 21.4275 17.2109 20.8967C18.1273 20.4298 18.8723 19.6849 19.3392 18.7685C19.87 17.7268 19.87 16.3631 19.87 13.6357V9.73979C19.87 9.45612 19.87 9.1872 19.8694 8.93186C19.8676 8.17724 19.5605 7.45789 19.0269 6.9243L14.8936 2.79106Z" fill="white"/>
</mask>
<g mask="url(#mask0_1144_11199)">
<path d="M6.94528 2.47881L7.60854 3.78054L6.94528 2.47881ZM4.81707 4.60702L6.11879 5.27028L4.81707 4.60702ZM4.81707 18.7686L3.51534 19.4317L4.81707 18.7686ZM6.94528 20.8967L7.60854 19.595L6.94528 20.8967ZM17.2108 20.8967L16.5476 19.595L17.2108 20.8967ZM19.3391 18.7686L18.0373 18.1053L19.3391 18.7686ZM19.0268 6.92432L17.9938 7.95738L19.0268 6.92432ZM12.0781 3.40899C12.3621 3.40899 12.6292 3.40899 12.8826 3.40958L12.8894 0.487663C12.6321 0.487061 12.3614 0.487062 12.0781 0.487062V3.40899ZM7.60854 3.78054C7.88912 3.63757 8.27681 3.52945 8.99852 3.47048C9.73729 3.41012 10.6903 3.40899 12.0781 3.40899V0.487062C10.7385 0.487062 9.64593 0.485925 8.76058 0.558262C7.85818 0.631991 7.04315 0.78926 6.28201 1.17708L7.60854 3.78054ZM6.11879 5.27028C6.44561 4.62886 6.96712 4.10735 7.60854 3.78054L6.28201 1.17708C5.09079 1.78404 4.12229 2.75254 3.51534 3.94376L6.11879 5.27028ZM5.74724 9.73982C5.74724 8.35202 5.74838 7.39904 5.80874 6.66027C5.8677 5.93855 5.97582 5.55086 6.11879 5.27028L3.51534 3.94376C3.12751 4.7049 2.97025 5.51992 2.89652 6.42233C2.82418 7.30768 2.82532 8.40023 2.82532 9.73982H5.74724ZM5.74724 13.6357V9.73982H2.82532V13.6357H5.74724ZM6.11879 18.1053C5.97582 17.8247 5.8677 17.4369 5.80874 16.7152C5.74838 15.9765 5.74724 15.0235 5.74724 13.6357H2.82532C2.82532 14.9753 2.82418 16.0678 2.89652 16.9532C2.97025 17.8557 3.12751 18.6707 3.51534 19.4317L6.11879 18.1053ZM7.60854 19.595C6.96712 19.2682 6.44561 18.7466 6.11879 18.1053L3.51534 19.4317C4.12229 20.623 5.09079 21.5915 6.28201 22.1984L7.60854 19.595ZM12.0781 19.9666C10.6903 19.9666 9.73729 19.9654 8.99852 19.9051C8.27681 19.8461 7.88912 19.738 7.60854 19.595L6.28201 22.1984C7.04315 22.5863 7.85818 22.7435 8.76058 22.8173C9.64593 22.8896 10.7385 22.8885 12.0781 22.8885V19.9666ZM16.5476 19.595C16.267 19.738 15.8793 19.8461 15.1576 19.9051C14.4188 19.9654 13.4659 19.9666 12.0781 19.9666V22.8885C13.4177 22.8885 14.5102 22.8896 15.3955 22.8173C16.298 22.7435 17.113 22.5863 17.8741 22.1984L16.5476 19.595ZM18.0373 18.1053C17.7106 18.7466 17.189 19.2682 16.5476 19.595L17.8741 22.1984C19.0654 21.5915 20.0339 20.623 20.6408 19.4317L18.0373 18.1053ZM18.4089 13.6357C18.4089 15.0235 18.4077 15.9765 18.3475 16.7152C18.2884 17.4369 18.1803 17.8247 18.0373 18.1053L20.6408 19.4317C21.0286 18.6707 21.1859 17.8557 21.2596 16.9532C21.332 16.0678 21.3308 14.9753 21.3308 13.6357H18.4089ZM18.4089 9.73982V13.6357H21.3308V9.73982H18.4089ZM18.4083 8.9353C18.4089 9.18862 18.4089 9.45577 18.4089 9.73982H21.3308C21.3308 9.45652 21.3308 9.18583 21.3303 8.92847L18.4083 8.9353ZM20.0599 5.89126L15.9266 1.75802L13.8605 3.82414L17.9938 7.95738L20.0599 5.89126ZM21.3303 8.92847C21.3275 7.77691 20.8589 6.69038 20.0599 5.89126L17.9938 7.95738C18.2618 8.22544 18.4074 8.57762 18.4083 8.9353L21.3303 8.92847ZM12.8826 3.40958C13.2403 3.41042 13.5924 3.55606 13.8605 3.82414L15.9266 1.75802C15.1275 0.958908 14.041 0.490357 12.8894 0.487663L12.8826 3.40958Z" fill="#FECC00"/>
<path d="M13.5391 2.43481V5.35674C13.5391 6.97047 14.8472 8.27866 16.461 8.27866H18.8959" stroke="#FECC00" stroke-width="1.75315"/>
</g>
</svg>
