<svg width="160" height="96" viewBox="0 0 160 96" fill="none" xmlns="http://www.w3.org/2000/svg">
<g clip-path="url(#clip0_11905_53843)">
<path fill-rule="evenodd" clip-rule="evenodd" d="M91.555 45.7879C91.3291 46.3707 91.2143 46.9857 91.2158 47.6051L91.218 47.6015C91.1806 48.909 91.4336 50.2097 91.9612 51.4225C92.4139 52.4247 93.0934 53.3248 93.9536 54.0618C94.8032 54.7751 95.7874 55.3364 96.8567 55.7175C97.9823 56.1229 99.1472 56.4269 100.335 56.6252C101.556 56.8299 102.79 56.9597 104.03 57.0137C105.268 57.0701 106.451 57.1014 107.575 57.1014C110.156 57.1351 112.733 56.8879 115.252 56.3649C117.195 55.9736 119.045 55.2584 120.713 54.254C122.093 53.4076 123.22 52.2502 123.988 50.8898C124.737 49.5121 125.116 47.9864 125.091 46.4432C125.167 44.5863 124.806 42.7364 124.033 41.0226C123.395 39.7039 122.379 38.5736 121.096 37.7555C119.76 36.9451 118.256 36.4036 116.681 36.1658C114.875 35.8742 113.044 35.7324 111.21 35.742H106.448C105.786 35.7893 105.131 35.5916 104.626 35.1919C104.428 35.0163 104.273 34.8045 104.168 34.57C104.064 34.3354 104.013 34.0833 104.019 33.8296C104.018 33.5934 104.076 33.3602 104.186 33.1474C104.298 32.9319 104.447 32.7344 104.626 32.5623C105.032 32.6167 105.459 32.6616 105.92 32.7042C106.38 32.7371 106.909 32.7587 107.485 32.7587C109.532 32.7792 111.573 32.5426 113.552 32.0553C115.248 31.6462 116.845 30.9418 118.258 29.9795C119.555 29.0778 120.601 27.9018 121.309 26.5492C122.053 25.0744 122.423 23.4606 122.389 21.8322C122.391 21.0972 122.335 20.3632 122.22 19.636C122.141 19.0529 121.994 18.4795 121.782 17.9257L125.431 18.2834V10.8494L113.182 10.8826C111.897 10.6006 110.794 10.3948 109.884 10.2547C108.983 10.1139 108.072 10.0418 107.158 10.039C105.077 10.0176 103.005 10.2909 101.013 10.8494C99.2733 11.3305 97.6492 12.117 96.2286 13.1663C94.9121 14.1434 93.8468 15.3809 93.1104 16.7886C92.3507 18.2797 91.969 19.9126 91.9946 21.562C91.9337 23.4467 92.3623 25.3172 93.2442 27.0156C94.0125 28.4319 95.18 29.6281 96.6225 30.477C94.929 31.4284 93.6855 32.9392 93.1416 34.7063C92.9662 35.2472 92.8753 35.8087 92.8717 36.3736C92.8491 37.4051 93.072 38.4284 93.5244 39.3707C93.9615 40.2523 94.6609 40.9994 95.5402 41.5239C94.9373 41.8689 94.3717 42.2673 93.8513 42.7134C93.347 43.1458 92.891 43.6244 92.4903 44.1419C92.0965 44.6469 91.7816 45.201 91.555 45.7879ZM101.875 47.6477C101.774 47.3058 101.722 46.953 101.719 46.5984L101.72 46.5966C101.704 46.1266 101.868 45.6665 102.183 45.2984C102.511 44.9222 102.916 44.6098 103.374 44.3793H110.624C111.378 44.3463 112.127 44.4992 112.797 44.8223C113.084 45.0065 113.311 45.2602 113.454 45.5559C113.597 45.8515 113.65 46.1778 113.607 46.4993C113.607 46.8943 113.531 47.286 113.381 47.6558C113.206 48.053 112.898 48.387 112.502 48.6082C111.931 48.9279 111.302 49.1485 110.646 49.2592C109.6 49.4446 108.537 49.528 107.473 49.5082C106.418 49.5329 105.364 49.4461 104.331 49.2494C103.71 49.1375 103.121 48.9094 102.598 48.5788C102.252 48.3523 101.997 48.0244 101.875 47.6477ZM107.313 24.8408C105.074 24.8408 103.948 23.7374 103.948 21.5307C103.951 19.2802 105.095 18.1549 107.38 18.1549C107.848 18.12 108.318 18.1804 108.757 18.3318C109.197 18.4833 109.595 18.7222 109.925 19.0318C110.536 19.7493 110.836 20.6521 110.769 21.5642C110.771 23.7486 109.619 24.8408 107.313 24.8408ZM103.948 21.5307C103.948 21.5303 103.948 21.5298 103.948 21.5293V21.5309C103.948 21.5308 103.948 21.5308 103.948 21.5307ZM57.355 43.8618H70.1223V20.8469C70.654 20.4676 71.2272 20.1413 71.8323 19.8732C72.4639 19.6198 73.1475 19.4977 73.8352 19.5153C74.2502 19.4731 74.669 19.55 75.0355 19.7356C75.4019 19.9212 75.6984 20.2065 75.8849 20.5533C76.2931 21.588 76.4696 22.6892 76.4036 23.7895V43.8601H89.169V25C89.1961 22.7766 89.0266 20.5548 88.6622 18.3571C88.4137 16.7122 87.8129 15.1302 86.8954 13.7044C86.0695 12.4899 84.8744 11.5302 83.461 10.9466C81.7265 10.2898 79.8622 9.98052 77.99 10.039C76.9612 10.0347 75.9359 10.1509 74.9384 10.3849C74.0081 10.6003 73.1056 10.9086 72.2467 11.3042C71.4372 11.6837 70.6749 12.1445 69.9736 12.6784C69.3069 13.1786 68.6892 13.7327 68.1279 14.3342L67.4873 10.9466H57.355V43.8618ZM40.2102 32.0343V43.8625H52.9777V22.6081H37.3742V31.5464L40.2102 32.0343ZM38.5423 11.3882C38.1896 12.3001 38.0222 13.2648 38.0483 14.2334H38.0461C38.0189 15.1635 38.1867 16.0897 38.5401 16.9603C38.8354 17.6576 39.3297 18.267 39.9697 18.7233C40.673 19.1967 41.4809 19.5187 42.3349 19.6659C43.4025 19.862 44.4889 19.9564 45.5771 19.9476C46.6874 19.9572 47.796 19.8628 48.8859 19.6659C49.7603 19.518 50.5899 19.1964 51.3181 18.7233C51.9789 18.2734 52.4938 17.6635 52.8064 16.9603C53.1694 16.0918 53.3415 15.1646 53.3127 14.2334C53.3438 13.2627 53.168 12.2957 52.7955 11.3882C52.4741 10.6571 51.9543 10.0157 51.2867 9.52635C50.5687 9.01965 49.7377 8.66845 48.8547 8.49845C47.7782 8.285 46.6796 8.18329 45.5789 8.19519C44.4893 8.18102 43.4015 8.28277 42.3368 8.49845C41.4746 8.66955 40.6657 9.02111 39.9719 9.52635C39.3286 10.0205 38.8357 10.6624 38.5423 11.3882ZM19.756 0.00085669H0V43.9011H17.0895C19.9998 43.9604 22.905 43.6477 25.7234 42.9718C27.759 42.4863 29.6543 41.5898 31.274 40.3462C32.6383 39.2544 33.6636 37.844 34.244 36.2608C34.8505 34.5527 35.1476 32.763 35.1231 30.9646C35.1482 29.6643 34.9662 28.3676 34.583 27.1167C34.2602 26.097 33.7459 25.1383 33.0637 24.2849C32.4155 23.487 31.6229 22.7998 30.7213 22.254C29.7786 21.6898 28.7748 21.2189 27.7264 20.8491V20.3941C29.7664 19.8096 31.497 18.5374 32.578 16.8279C33.5577 15.043 34.0378 13.0579 33.9741 11.0555C34.0234 9.32014 33.6297 7.59859 32.8251 6.03162C32.102 4.67063 31.0366 3.49132 29.719 2.59342C28.3541 1.67835 26.8153 1.01105 25.1835 0.626671C23.4107 0.202712 21.5866 -0.00762017 19.756 0.00085669ZM12.7655 34.6245V25.2879L12.7654 25.2858H16.7505C17.4526 25.2283 18.1598 25.3116 18.8242 25.5299C19.4887 25.7482 20.0949 26.0965 20.6018 26.5512C21.4645 27.5363 21.8983 28.7859 21.8177 30.0534C21.8902 30.6985 21.8066 31.3505 21.5731 31.9618C21.3395 32.5731 20.9618 33.1282 20.4677 33.5866C19.377 34.335 18.0372 34.7025 16.6837 34.6245H12.7655ZM12.7655 16.7287V8.55979V8.55797H16.4136C17.6499 8.48982 18.875 8.80946 19.8922 9.46555C20.3393 9.8431 20.6852 10.3125 20.9021 10.8363C21.119 11.36 21.2011 11.9237 21.1417 12.4821C21.1417 15.3132 19.6557 16.7287 16.6837 16.7287H12.7655ZM126.839 27.3739C126.839 21.5955 128.257 17.2854 131.094 14.4438C133.93 11.6098 138.05 10.1929 143.455 10.1931C148.903 10.1931 153.024 11.6287 155.816 14.4998C158.607 17.3665 160.002 21.68 160.002 27.4401C160.002 33.3367 158.592 37.7264 155.77 40.6091C153.604 42.8142 150.673 44.1745 146.976 44.6899L146.968 44.6846C146.831 44.5945 146.716 44.4782 146.631 44.3434L144.035 40.1805C143.929 40.0148 143.778 39.8777 143.598 39.7824C143.417 39.6872 143.213 39.6371 143.006 39.6371C142.798 39.6371 142.594 39.6872 142.414 39.7824C142.233 39.8777 142.083 40.0148 141.977 40.1805L139.38 44.3435C139.322 44.4358 139.25 44.5195 139.166 44.592C135.775 44.0144 133.07 42.6867 131.049 40.6091C128.247 37.7193 126.844 33.3082 126.841 27.376L126.839 27.3739ZM147.034 27.502C147.049 26.2232 146.981 24.9446 146.831 23.6733C146.748 22.8396 146.532 22.022 146.189 21.2478C145.973 20.7289 145.587 20.2863 145.086 19.9825C144.607 19.7248 144.062 19.5938 143.509 19.6038C142.952 19.5912 142.4 19.7144 141.91 19.9613C141.393 20.2594 140.99 20.7023 140.761 21.2264C140.41 22 140.183 22.8172 140.088 23.6519C139.927 24.9297 139.856 26.2157 139.874 27.502C139.857 28.7929 139.928 30.0834 140.088 31.3658C140.186 32.2124 140.409 33.0423 140.751 33.8322C140.964 34.3617 141.35 34.8158 141.856 35.1304C142.348 35.3922 142.909 35.5233 143.476 35.5092C144.029 35.5193 144.574 35.3883 145.052 35.1304C145.561 34.8194 145.947 34.364 146.155 33.8322C146.497 33.0424 146.721 32.2124 146.818 31.3658C146.978 30.0834 147.049 28.7929 147.032 27.502H147.034Z" fill="white"/>
<path fill-rule="evenodd" clip-rule="evenodd" d="M146.402 59.9092H159.17V92.8241H150.493L148.398 89.4368C147.836 90.0384 147.218 90.5926 146.551 91.093C145.85 91.6265 145.088 92.0871 144.278 92.4664C143.42 92.8624 142.517 93.1707 141.587 93.3858C140.589 93.6199 139.564 93.7361 138.535 93.7318C136.663 93.7903 134.798 93.481 133.064 92.8241C131.65 92.241 130.455 91.2812 129.629 90.0665C128.712 88.6405 128.111 87.0584 127.863 85.4135C127.499 83.2159 127.329 80.9942 127.356 78.7708V59.9111H140.121V79.9819C140.055 81.082 140.232 82.183 140.641 83.2173C140.827 83.5641 141.123 83.8496 141.489 84.0352C141.856 84.2209 142.275 84.2977 142.689 84.2553C143.377 84.2732 144.061 84.1511 144.693 83.8977C145.298 83.6298 145.871 83.3035 146.402 82.9242V59.9092ZM63.0991 64.9093L62.5865 55.8547H91.3901L90.8187 64.9093H82.9029V93.6944H71.0444V64.9093H63.0991ZM90.9687 76.4137L90.9707 76.4158C90.9707 82.3551 92.3735 86.7663 95.1792 89.6495C97.9819 92.5256 102.095 93.9643 107.518 93.9655C112.943 93.9655 117.071 92.5268 119.901 89.6495C122.726 86.7591 124.136 82.3692 124.132 76.4799C124.132 70.7232 122.737 66.41 119.946 63.5403C117.155 60.6716 113.034 59.2359 107.586 59.2333C102.181 59.2333 98.0608 60.6501 95.2239 63.4838C92.3879 66.3292 90.9695 70.6392 90.9687 76.4137ZM111.164 76.542H111.162C111.18 77.8329 111.108 79.1236 110.948 80.4061C110.851 81.2524 110.627 82.0822 110.285 82.872C110.078 83.4038 109.691 83.8592 109.182 84.1702C108.704 84.4282 108.159 84.5593 107.606 84.5495C107.039 84.5633 106.478 84.4321 105.986 84.1702C105.48 83.8555 105.094 83.4015 104.881 82.872C104.539 82.0822 104.316 81.2524 104.217 80.4061C104.058 79.1235 103.987 77.8329 104.004 76.542C103.986 75.2559 104.057 73.9701 104.217 72.6925C104.313 71.8578 104.54 71.0406 104.891 70.2669C105.12 69.7427 105.523 69.2995 106.041 69.0015C106.531 68.7544 107.082 68.631 107.639 68.6439C108.192 68.634 108.737 68.7651 109.216 69.0229C109.717 69.3267 110.103 69.7693 110.319 70.2881C110.662 71.0623 110.878 71.8798 110.961 72.7133C111.111 73.9846 111.179 75.2631 111.164 76.542ZM141.974 40.1795C142.08 40.0139 142.231 39.8767 142.411 39.7815C142.592 39.6862 142.796 39.6361 143.003 39.6361C143.211 39.6361 143.415 39.6862 143.595 39.7815C143.776 39.8767 143.926 40.0139 144.032 40.1795L146.629 44.3425C146.714 44.4772 146.828 44.5935 146.966 44.6836C147.103 44.7737 147.259 44.8355 147.424 44.8649L152.607 45.81C152.81 45.8428 152.999 45.9259 153.155 46.0506C153.312 46.1754 153.429 46.337 153.494 46.5185C153.559 46.6999 153.57 46.8944 153.526 47.0812C153.482 47.268 153.384 47.4402 153.243 47.5796L149.665 51.0974C149.551 51.2089 149.464 51.3424 149.411 51.4885C149.359 51.6346 149.342 51.7897 149.361 51.9427L149.968 56.6897C149.987 56.881 149.952 57.0738 149.866 57.2484C149.78 57.4231 149.645 57.5735 149.476 57.6845C149.307 57.7955 149.11 57.8631 148.904 57.8804C148.698 57.8978 148.49 57.8644 148.303 57.7835L143.495 55.7947C143.34 55.7308 143.173 55.6978 143.003 55.6978C142.834 55.6978 142.666 55.7308 142.511 55.7947L137.704 57.7835C137.516 57.8644 137.309 57.8979 137.103 57.8805C136.896 57.8631 136.699 57.7955 136.53 57.6846C136.361 57.5736 136.227 57.4232 136.14 57.2485C136.054 57.0738 136.019 56.8811 136.039 56.6898L136.646 51.9427C136.665 51.7897 136.647 51.6347 136.595 51.4886C136.542 51.3425 136.456 51.209 136.341 51.0975L132.764 47.5796C132.623 47.4403 132.525 47.2681 132.481 47.0812C132.436 46.8944 132.447 46.7 132.513 46.5185C132.578 46.3371 132.695 46.1754 132.851 46.0507C133.007 45.926 133.197 45.8428 133.4 45.8101L138.582 44.8649C138.747 44.8355 138.903 44.7737 139.041 44.6836C139.178 44.5935 139.293 44.4772 139.377 44.3425L141.974 40.1795Z" fill="#FECC00"/>
</g>
<defs>
<clipPath id="clip0_11905_53843">
<rect width="160" height="96" fill="white"/>
</clipPath>
</defs>
</svg>
