<svg width="118" height="152" viewBox="0 0 118 152" fill="none" xmlns="http://www.w3.org/2000/svg">
<g opacity="0.1">
<path d="M99.6667 84.93C94.5294 95.019 87.5686 105.07 80.451 114.095C73.699 122.603 66.4794 130.753 58.8235 138.51C51.1675 130.754 43.9479 122.603 37.1961 114.095C30.0784 105.07 23.1176 95.019 17.9804 84.93C12.7843 74.7365 9.80392 65.189 9.80392 57C9.80392 44.4022 14.9685 32.3204 24.1614 23.4124C33.3544 14.5044 45.8227 9.5 58.8235 9.5C71.8243 9.5 84.2927 14.5044 93.4856 23.4124C102.679 32.3204 107.843 44.4022 107.843 57C107.843 65.189 104.853 74.7365 99.6667 84.93ZM58.8235 152C58.8235 152 117.647 97.983 117.647 57C117.647 41.8827 111.45 27.3845 100.418 16.6949C89.3865 6.00534 74.4245 0 58.8235 0C43.2226 0 28.2606 6.00534 17.229 16.6949C6.19746 27.3845 2.32473e-07 41.8827 0 57C0 97.983 58.8235 152 58.8235 152Z" fill="white"/>
<path d="M58.8239 76C53.6236 76 48.6362 73.9982 44.959 70.435C41.2819 66.8718 39.216 62.0391 39.216 57C39.216 51.9609 41.2819 47.1282 44.959 43.565C48.6362 40.0018 53.6236 38 58.8239 38C64.0242 38 69.0115 40.0018 72.6887 43.565C76.3659 47.1282 78.4317 51.9609 78.4317 57C78.4317 62.0391 76.3659 66.8718 72.6887 70.435C69.0115 73.9982 64.0242 76 58.8239 76ZM58.8239 85.5C66.6244 85.5 74.1054 82.4973 79.6211 77.1525C85.1369 71.8077 88.2356 64.5587 88.2356 57C88.2356 49.4413 85.1369 42.1922 79.6211 36.8475C74.1054 31.5027 66.6244 28.5 58.8239 28.5C51.0234 28.5 43.5424 31.5027 38.0266 36.8475C32.5108 42.1922 29.4121 49.4413 29.4121 57C29.4121 64.5587 32.5108 71.8077 38.0266 77.1525C43.5424 82.4973 51.0234 85.5 58.8239 85.5V85.5Z" fill="white"/>
</g>
</svg>
